# This file uses centimeters as units for non-parametric coordinates.

mtllib FeedingTrough.mtl
g default
v -0.121068 0.073807 -0.498416
v -0.161957 0.073769 0.487485
v -0.091240 0.202845 -0.440324
v -0.127271 0.202627 0.430629
v 0.127475 0.202917 -0.431278
v 0.091181 0.202707 0.439738
v 0.161169 0.073426 -0.485921
v 0.120370 0.073438 0.498568
v -0.121740 0.114843 -0.412699
v 0.154581 0.115224 -0.401590
v -0.155020 0.114990 0.397851
v 0.121785 0.114882 0.409240
v 0.172431 -0.000292 -0.499529
v 0.172709 0.000134 -0.446995
v -0.135518 -0.000276 -0.459536
v -0.130041 0.000037 -0.511676
v 0.135636 -0.000250 0.456033
v -0.173058 -0.000328 0.443165
v 0.129871 0.000039 0.515141
v -0.172179 0.000000 0.502648
v -0.107651 0.193441 0.405951
v 0.073746 0.193301 0.413487
v 0.107933 0.194784 -0.407715
v -0.073550 0.195184 -0.415168
v -0.088361 0.173646 0.391698
v 0.055574 0.173099 0.397894
v 0.088872 0.170322 -0.391468
v -0.060671 0.180798 -0.402251
v -0.060184 0.165519 -0.291336
v 0.090633 0.179543 -0.293311
v -0.075822 0.175017 -0.142623
v 0.075425 0.146526 -0.071503
v -0.083219 0.167662 0.101172
v 0.067981 0.149515 0.103011
v -0.084328 0.166139 0.257519
v 0.059253 0.166262 0.313899
v -0.018735 0.193189 0.402546
v 0.002092 0.220693 0.256938
v -0.018539 0.155684 0.056022
v -0.013266 0.177586 -0.068825
v -0.016098 0.176820 -0.324286
v 0.026556 0.161370 -0.287267
v 0.033341 0.137555 -0.158567
v -0.162827 0.075738 -0.008419
v 0.162630 0.075898 0.004820
v 0.128674 0.186323 0.005296
v 0.106917 0.176003 0.003715
v 0.084397 0.148276 0.018857
v 0.059634 0.138709 -0.032371
v -0.018696 0.170188 -0.007215
v -0.093562 0.170696 -0.024071
v -0.106601 0.176320 -0.005105
v -0.128554 0.186233 -0.005386
vt 0.021735 0.791908
vt 0.022178 0.972299
vt 0.016285 0.874328
vt 0.016181 0.750767
vt 0.012834 0.854166
vt 0.228185 0.915033
vt 0.011477 0.870334
vt 0.022087 0.893292
vt 0.021674 0.805541
vt 0.016876 0.772098
vt 0.016835 0.958026
vt 0.023001 0.743532
vt 0.022773 0.763353
vt 0.011368 0.773209
vt 0.010055 0.756331
vt 0.010884 0.973381
vt 0.011838 0.974478
vt 0.012268 0.811568
vt 0.011105 0.799114
vt 0.011840 0.705450
vt 0.011268 0.705593
vt 0.010478 0.676157
vt 0.009860 0.677803
vt 0.022223 0.691518
vt 0.022376 0.658061
vt 0.022957 0.690536
vt 0.023221 0.657574
vt 0.021771 0.963874
vt 0.021817 0.881890
vt 0.016785 0.867314
vt 0.011266 0.885166
vt 0.012035 0.886254
vt 0.016329 0.944167
vt 0.021700 0.882569
vt 0.021585 0.862584
vt 0.013285 0.871125
vt 0.012156 0.862328
vt 0.014637 0.863417
vt 0.227397 0.927878
vt 0.017746 0.854703
vt 0.225712 0.915033
vt 0.231411 0.915033
vt 0.016108 0.858113
vt 0.019803 0.852525
vt 0.232989 0.927877
vt 0.021605 0.860264
vt 0.020525 0.855857
vt 0.017928 0.839769
vt 0.016933 0.839316
vt 0.236735 0.915033
vt 0.235721 0.927877
vt 0.234344 0.927878
vt 0.015842 0.837657
vt 0.016329 0.863875
vt 0.016329 0.944167
vt 0.016285 0.954620
vt 0.016285 0.954620
vt 0.016835 0.877734
vt 0.016835 0.958026
vt 0.016785 0.947606
vt 0.016785 0.947606
vt 0.022178 0.972299
vt 0.022178 0.892007
vt 0.021817 0.962182
vt 0.021817 0.962182
vt 0.021771 0.963874
vt 0.021771 0.883582
vt 0.022087 0.973584
vt 0.022087 0.973584
vt 0.011266 0.965458
vt 0.011266 0.965458
vt 0.012035 0.966546
vt 0.012035 0.966546
vt 0.010884 0.893089
vt 0.010884 0.973381
vt 0.011838 0.894186
vt 0.011838 0.974478
vt 0.234011 0.915033
vt 0.240140 0.915033
vt 0.240249 0.927877
vt 0.243097 0.915033
vt 0.243409 0.927877
vt 0.243219 0.915033
vt 0.241348 0.915033
vt 0.236706 0.915033
vt 0.234869 0.915033
vt 0.233773 0.926435
vt 0.228225 0.925717
vt 0.231065 0.925717
vt 0.232913 0.915033
vt 0.227989 0.915033
vt 0.225870 0.915033
vn -0.953798 0.300297 -0.009547
vn -0.953798 0.300297 -0.009547
vn -0.952775 0.301161 -0.039013
vn -0.952748 0.301174 -0.039552
vn -0.149721 0.979390 0.135569
vn -0.149721 0.979390 0.135569
vn -0.149721 0.979390 0.135569
vn 0.951708 0.299120 0.069132
vn 0.951708 0.299120 0.069132
vn 0.953916 0.297552 0.038817
vn 0.953880 0.297587 0.039437
vn -0.003837 -0.995383 0.095904
vn -0.003837 -0.995383 0.095904
vn 0.000472 -1.000000 -0.000037
vn 0.000472 -1.000000 -0.000047
vn -0.036554 0.409354 0.911643
vn -0.036554 0.409354 0.911643
vn -0.036554 0.409354 0.911643
vn -0.036554 0.409354 0.911643
vn 0.039619 0.399897 -0.915703
vn 0.039619 0.399897 -0.915703
vn 0.039619 0.399897 -0.915703
vn 0.039619 0.399897 -0.915703
vn 0.959284 0.275631 -0.061663
vn 0.959284 0.275631 -0.061663
vn 0.959284 0.275631 -0.061663
vn -0.948169 0.283658 -0.143225
vn -0.948169 0.283658 -0.143225
vn -0.948169 0.283658 -0.143225
vn -0.957680 0.282385 0.055751
vn -0.957680 0.282385 0.055751
vn -0.957680 0.282385 0.055751
vn 0.948894 0.280279 0.145067
vn 0.948894 0.280279 0.145067
vn 0.948894 0.280279 0.145067
vn 0.987999 0.154447 -0.002096
vn 0.987999 0.154447 -0.002096
vn 0.987999 0.154447 -0.002096
vn 0.987999 0.154447 -0.002096
vn -0.037015 -0.372291 0.927377
vn -0.037015 -0.372291 0.927378
vn -0.037015 -0.372291 0.927378
vn -0.037015 -0.372291 0.927377
vn -0.985371 0.146423 -0.087199
vn -0.985371 0.146423 -0.087199
vn -0.985371 0.146423 -0.087199
vn -0.985371 0.146423 -0.087199
vn 0.041637 0.179694 -0.982841
vn 0.041637 0.179694 -0.982841
vn 0.041637 0.179694 -0.982841
vn 0.041637 0.179694 -0.982841
vn 0.038413 -0.371466 -0.927652
vn 0.038413 -0.371466 -0.927652
vn 0.038413 -0.371466 -0.927652
vn 0.038413 -0.371466 -0.927652
vn 0.984281 0.152088 0.089782
vn 0.984281 0.152088 0.089782
vn 0.984281 0.152089 0.089782
vn 0.984281 0.152088 0.089782
vn -0.039299 0.210819 0.976735
vn -0.039299 0.210819 0.976735
vn -0.039299 0.210819 0.976735
vn -0.039299 0.210819 0.976735
vn -0.988997 0.147935 0.000395
vn -0.988997 0.147935 0.000395
vn -0.988997 0.147935 0.000395
vn -0.988997 0.147935 0.000395
vn 0.014392 0.939471 -0.342327
vn 0.014392 0.939471 -0.342327
vn 0.014392 0.939471 -0.342327
vn 0.014392 0.939471 -0.342327
vn -0.408069 0.910227 -0.070473
vn -0.400109 0.916304 -0.017320
vn -0.399801 0.916472 -0.015408
vn -0.408069 0.910227 -0.070473
vn -0.011916 0.951321 0.307972
vn -0.011916 0.951321 0.307972
vn -0.011916 0.951321 0.307972
vn -0.011916 0.951321 0.307972
vn 0.383520 0.923373 0.017148
vn 0.384055 0.923182 0.015420
vn 0.399481 0.916021 -0.036352
vn 0.399481 0.916021 -0.036352
vn 0.097325 0.551784 -0.828289
vn 0.097325 0.551784 -0.828289
vn 0.097325 0.551784 -0.828289
vn -0.801350 0.596742 -0.041685
vn -0.801350 0.596742 -0.041685
vn -0.801350 0.596742 -0.041685
vn -0.024142 0.602654 0.797638
vn -0.024142 0.602654 0.797638
vn -0.024142 0.602654 0.797638
vn -0.024142 0.602654 0.797638
vn 0.817341 0.574042 0.049290
vn 0.817341 0.574042 0.049290
vn 0.817341 0.574042 0.049290
vn -0.118003 0.992591 -0.028945
vn -0.118003 0.992591 -0.028945
vn -0.118003 0.992591 -0.028945
vn -0.118003 0.992591 -0.028945
vn 0.106134 0.990604 0.086259
vn 0.106134 0.990604 0.086259
vn 0.035159 0.996646 0.073891
vn 0.016063 0.997382 0.070504
vn -0.309915 0.938873 -0.149903
vn -0.309915 0.938873 -0.149903
vn -0.309915 0.938873 -0.149903
vn -0.309915 0.938873 -0.149903
vn -0.430201 0.902351 0.026267
vn -0.430201 0.902351 0.026267
vn -0.430201 0.902351 0.026267
vn -0.430201 0.902351 0.026267
vn 0.450176 0.883776 0.127599
vn 0.450175 0.883776 0.127599
vn 0.450176 0.883776 0.127599
vn 0.450176 0.883776 0.127599
vn 0.491618 0.851317 -0.183224
vn 0.491618 0.851317 -0.183224
vn 0.491618 0.851317 -0.183224
vn 0.491618 0.851317 -0.183224
vn -0.267785 0.962641 -0.040175
vn -0.344151 0.938195 0.036735
vn -0.245320 0.967451 -0.062096
vn -0.345609 0.927559 0.142090
vn -0.345609 0.927559 0.142090
vn -0.345609 0.927559 0.142090
vn -0.345609 0.927559 0.142090
vn -0.279270 0.956457 -0.084840
vn -0.279270 0.956457 -0.084840
vn -0.279270 0.956457 -0.084840
vn 0.113341 0.990222 0.081328
vn 0.113341 0.990222 0.081328
vn 0.113341 0.990222 0.081328
vn 0.113341 0.990222 0.081328
vn 0.543095 0.838867 0.036735
vn 0.543095 0.838867 0.036735
vn 0.543095 0.838867 0.036735
vn 0.543095 0.838867 0.036735
vn 0.361914 0.932170 -0.008804
vn 0.323661 0.946165 -0.003963
vn 0.221546 0.975112 0.008668
vn 0.221546 0.975112 0.008668
vn -0.705803 0.702905 -0.088131
vn -0.705803 0.702905 -0.088131
vn -0.705803 0.702905 -0.088131
vn -0.714135 0.694861 -0.084735
vn -0.714135 0.694861 -0.084735
vn -0.714135 0.694860 -0.084735
vn 0.001844 0.999664 -0.025842
vn 0.001844 0.999664 -0.025842
vn 0.001844 0.999664 -0.025842
vn -0.029981 0.564641 -0.824792
vn -0.029981 0.564641 -0.824792
vn -0.029981 0.564641 -0.824792
vn 0.183538 0.970389 0.157029
vn 0.183538 0.970390 0.157029
vn 0.183538 0.970390 0.157029
vn -0.718375 0.688723 -0.097968
vn -0.724801 0.688859 -0.011702
vn -0.722883 0.689424 -0.046213
vn -0.718375 0.688723 -0.097968
vn 0.697909 0.709894 0.094725
vn 0.697909 0.709894 0.094725
vn 0.697909 0.709894 0.094725
vn 0.790506 0.612345 0.011576
vn 0.790506 0.612345 0.011576
vn 0.790506 0.612345 0.011576
vn 0.407523 0.911904 0.048549
vn 0.456703 0.889498 -0.014685
vn 0.469122 0.882578 -0.031312
vn 0.469122 0.882578 -0.031312
vn 0.709539 0.704434 -0.018085
vn 0.709539 0.704434 -0.018085
vn 0.709539 0.704434 -0.018085
vn 0.004782 -0.995360 -0.096103
vn 0.004782 -0.995360 -0.096103
vn 0.955221 0.295751 0.009140
vn 0.955221 0.295752 0.009140
vn -0.390508 0.919796 0.038454
vn -0.390508 0.919796 0.038454
vn -0.726016 0.686795 0.034821
vn -0.726016 0.686795 0.034821
vn -0.351911 0.934962 0.044771
vn -0.351911 0.934962 0.044771
vn 0.479791 0.877051 -0.024140
vn 0.479791 0.877051 -0.024140
vn -0.053207 0.996898 0.058001
vn -0.053206 0.996898 0.058001
vn 0.384171 0.920024 0.077262
vn 0.384171 0.920024 0.077262
vn 0.366711 0.927736 0.069485
vn 0.366711 0.927736 0.069485
vn -0.950896 0.301769 -0.068799
vn -0.950896 0.301769 -0.068799
s 1
g pCube158
usemtl lambert3SG
f 11/1/1 4/63/2 53/3/3 44/4/4
s off
f 29/6/5 41/39/6 28/41/7
s 2
f 6/8/8 12/9/9 45/10/10 46/58/11
s 3
f 12/9/12 11/1/13 44/4/14 45/10/15
s off
f 2/12/16 8/13/17 6/8/18 4/63/19
f 7/14/20 1/15/21 3/74/22 5/76/23
f 5/76/24 10/18/25 7/14/26
f 1/15/27 9/19/28 3/74/29
f 4/63/30 11/1/31 2/12/32
f 12/9/33 6/8/34 8/13/35
f 7/14/36 10/18/37 14/20/38 13/21/39
f 10/18/40 9/19/41 15/22/42 14/20/43
f 9/19/44 1/15/45 16/23/46 15/22/47
f 1/15/48 7/14/49 13/21/50 16/23/51
f 11/1/52 12/9/53 17/24/54 18/25/55
f 12/9/56 8/13/57 19/26/58 17/24/59
f 8/13/60 2/12/61 20/27/62 19/26/63
f 2/12/64 11/1/65 18/25/66 20/27/67
f 4/62/68 6/68/69 22/66/70 21/64/71
s 4
f 6/69/72 46/59/73 47/61/74 22/28/75
s off
f 5/17/76 3/75/77 24/71/78 23/72/79
s 5
f 52/55/80 53/57/81 4/2/82 21/65/83
s off
f 37/34/84 22/67/85 26/35/86
f 30/36/87 23/32/88 27/37/89
f 23/32/90 24/31/91 28/7/92 27/37/93
f 24/31/94 31/38/95 29/5/96
f 31/42/97 40/45/98 41/39/99 29/6/100
s 6
f 33/50/101 39/51/102 50/52/103 51/78/104
s off
f 35/79/105 38/80/106 39/51/107 33/50/108
f 25/81/109 37/82/110 38/80/111 35/79/112
f 38/80/113 37/82/114 26/83/115 36/84/116
f 39/51/117 38/80/118 36/84/119 34/85/120
s 7
f 48/86/121 49/87/122 34/85/123
s off
f 42/88/124 43/89/125 32/90/126 30/91/127
f 27/92/128 42/88/129 30/91/130
f 28/41/131 41/39/132 42/88/133 27/92/134
f 41/39/135 40/45/136 43/89/137 42/88/138
s 8
f 49/87/139 50/52/140 39/51/141 34/85/142
s off
f 22/67/143 36/47/144 26/35/145
f 22/67/146 34/48/147 36/47/148
f 21/29/149 22/67/150 37/34/151
f 21/29/152 37/34/153 25/46/154
f 32/53/155 23/32/156 30/36/157
s 9
f 22/67/158 47/30/159 48/49/160 34/48/161
s off
f 24/31/162 29/5/163 28/7/164
f 33/40/165 21/29/166 35/44/167
s 10
f 51/43/168 52/54/169 21/29/170 33/40/171
s off
f 35/44/172 21/29/173 25/46/174
s 3
f 45/10/15 44/4/14 9/19/175 10/18/176
s 2
f 46/58/11 45/10/10 10/18/177 5/76/178
s 4
f 47/60/74 46/11/73 5/77/179 23/73/180
s 9
f 48/49/160 47/30/159 23/32/181 32/53/182
s 7
f 43/89/183 49/87/122 48/86/121 32/90/184
s 8
f 40/45/185 50/52/140 49/87/139 43/89/186
s 6
f 51/78/104 50/52/103 40/45/187 31/42/188
s 10
f 24/31/189 52/54/169 51/43/168 31/38/190
s 5
f 3/16/191 53/56/81 52/33/80 24/70/192
s 1
f 44/4/4 53/3/3 3/74/193 9/19/194
